# xmcd
#
# Track frame offsets:
#	150
#	15775
#	33251
#	56537
#	82895
#	109258
#	127949
#	143428
#	163810
#	182044
#	196904
#	219002
#	241341
#
# Disc length: 3458 seconds
#
# Revision: 0
# Processed by: cddbd v1.5.2PL0 Copyright (c) Steve Scherf et al.
# Submitted via: VUPlayer 2.41
#
DISCID=970d800d
DTITLE=Jim Ryder and Adam James - Ryder and James Volume2
DYEAR=2007
DGENRE=Country
TTITLE0=How Deep In Love Am I
TTITLE1=So You Wanna be a Cowboy Singer
TTITLE2=Don't look away
TTITLE3=The ride
TTITLE4=Sunday Mornin' coming down
TTITLE5=Brokenheartsville
TTITLE6=The Buckeroos
TTITLE7=Some days are diamonds
TTITLE8=Dreamin' my Dreams of you
TTITLE9=Old soldiers
TTITLE10=Whiskey for my men (and beer for my horses)
TTITLE11=Fields of athenrye
TTITLE12=Hooked on a second ride
EXTD=
EXTT0=
EXTT1=
EXTT2=
EXTT3=
EXTT4=
EXTT5=
EXTT6=
EXTT7=
EXTT8=
EXTT9=
EXTT10=
EXTT11=
EXTT12=
PLAYORDER=
